<svg width="99" height="95" viewBox="0 0 99 95" fill="none" xmlns="http://www.w3.org/2000/svg">
<circle cx="74" cy="25" r="25" fill="#0052CC"/>
<g filter="url(#filter0_b_1_3864)">
<rect x="7" y="20" width="70" height="62" rx="10" fill="white" fill-opacity="0.3"/>
</g>
<path d="M60.9165 84.25H25.0832C10.7498 84.25 7.1665 80.6667 7.1665 66.3333V37.6667C7.1665 23.3333 10.7498 19.75 25.0832 19.75H60.9165C75.2498 19.75 78.8332 23.3333 78.8332 37.6667V66.3333C78.8332 80.6667 75.2498 84.25 60.9165 84.25Z" stroke="#292D32" stroke-width="5" stroke-linecap="round" stroke-linejoin="round"/>
<path d="M50.1665 37.6666H68.0832" stroke="#292D32" stroke-width="5" stroke-linecap="round" stroke-linejoin="round"/>
<path d="M53.75 52H68.0833" stroke="#292D32" stroke-width="5" stroke-linecap="round" stroke-linejoin="round"/>
<path d="M60.9165 66.3334H68.0832" stroke="#292D32" stroke-width="5" stroke-linecap="round" stroke-linejoin="round"/>
<path d="M30.4585 49.4558C34.0405 49.4558 36.9443 46.552 36.9443 42.97C36.9443 39.3879 34.0405 36.4841 30.4585 36.4841C26.8765 36.4841 23.9727 39.3879 23.9727 42.97C23.9727 46.552 26.8765 49.4558 30.4585 49.4558Z" stroke="#292D32" stroke-width="5" stroke-linecap="round" stroke-linejoin="round"/>
<path d="M42.9998 67.5158C42.4982 62.32 38.3773 58.235 33.1815 57.7691C31.3898 57.59 29.5623 57.59 27.7348 57.7691C22.539 58.2708 18.4182 62.32 17.9165 67.5158" stroke="#292D32" stroke-width="5" stroke-linecap="round" stroke-linejoin="round"/>
<defs>
<filter id="filter0_b_1_3864" x="-5" y="8" width="94" height="86" filterUnits="userSpaceOnUse" color-interpolation-filters="sRGB">
<feFlood flood-opacity="0" result="BackgroundImageFix"/>
<feGaussianBlur in="BackgroundImageFix" stdDeviation="6"/>
<feComposite in2="SourceAlpha" operator="in" result="effect1_backgroundBlur_1_3864"/>
<feBlend mode="normal" in="SourceGraphic" in2="effect1_backgroundBlur_1_3864" result="shape"/>
</filter>
</defs>
</svg>
