<svg width="90" height="100" viewBox="0 0 90 100" fill="none" xmlns="http://www.w3.org/2000/svg">
<circle cx="65" cy="25" r="25" fill="#0052CC"/>
<g filter="url(#filter0_b_1_3810)">
<path d="M4 23L35 12L66 23V96H4V23Z" fill="url(#paint0_linear_1_3810)" fill-opacity="0.2"/>
</g>
<path d="M62.3516 18.9609H54.0859V16.0859C54.0859 14.5974 52.8792 13.3906 51.3906 13.3906H42.8429C41.7304 10.2531 38.7327 8 35.2188 8C31.7048 8 28.7071 10.2531 27.5946 13.3906H18.8672C17.3787 13.3906 16.1719 14.5974 16.1719 16.0859V18.9609H8.08594C3.62735 18.9609 0 22.5883 0 27.0469V91.9141C0 96.3727 3.62735 100 8.08594 100H62.3516C66.8102 100 70.4375 96.3727 70.4375 91.9141V27.0469C70.4375 22.5883 66.8102 18.9609 62.3516 18.9609ZM21.5625 18.7812H29.8281C31.3167 18.7812 32.5234 17.5745 32.5234 16.0859C32.5234 14.5997 33.7326 13.3906 35.2188 13.3906C36.7049 13.3906 37.9141 14.5997 37.9141 16.0859C37.9141 17.5745 39.1208 18.7812 40.6094 18.7812H48.6953V21.6562C48.6953 23.1424 47.4862 24.3516 46 24.3516H24.2578C22.7716 24.3516 21.5625 23.1424 21.5625 21.6562V18.7812ZM65.0469 91.9141C65.0469 93.4003 63.8378 94.6094 62.3516 94.6094H8.08594C6.59974 94.6094 5.39062 93.4003 5.39062 91.9141V27.0469C5.39062 25.5607 6.59974 24.3516 8.08594 24.3516H16.6355C17.7481 27.4887 20.744 29.7422 24.2578 29.7422H46C49.5138 29.7422 52.5097 27.4887 53.6223 24.3516H62.3516C63.8378 24.3516 65.0469 25.5607 65.0469 27.0469V91.9141Z" fill="#253642"/>
<path d="M31.7496 54.8053C30.706 53.744 28.9993 53.7298 27.9381 54.7738L18.8829 63.6806L15.3824 60.1801C14.33 59.1275 12.6233 59.1275 11.5707 60.1801C10.5181 61.2327 10.5181 62.9392 11.5707 63.9918L16.9615 69.3824C17.4875 69.9084 18.1773 70.1718 18.8673 70.1718C19.5497 70.1718 20.2327 69.9141 20.7572 69.3981L31.7182 58.6168C32.7794 57.573 32.7934 55.8665 31.7496 54.8053Z" fill="#253642"/>
<path d="M31.7496 73.6725C30.706 72.6112 28.9993 72.597 27.9381 73.641L18.8829 82.5478L15.3824 79.0473C14.33 77.9947 12.6233 77.9947 11.5707 79.0473C10.5181 80.0999 10.5181 81.8064 11.5707 82.859L16.9615 88.2496C17.4875 88.7756 18.1773 89.039 18.8673 89.039C19.5497 89.039 20.2327 88.7813 20.7572 88.2652L31.7182 77.484C32.7794 76.4402 32.7934 74.7337 31.7496 73.6725Z" fill="#253642"/>
<path d="M26.1639 46.7035L22.679 43.2187L26.1637 39.734C27.2163 38.6814 27.2163 36.9749 26.1637 35.9223C25.1112 34.8697 23.4046 34.8697 22.352 35.9223L18.8673 39.407L15.3824 35.9223C14.33 34.8697 12.6233 34.8697 11.5707 35.9223C10.5181 36.9749 10.5181 38.6814 11.5707 39.734L15.0556 43.2187L11.5709 46.7033C10.5183 47.756 10.5183 49.4626 11.5709 50.5152C12.6233 51.5677 14.33 51.5678 15.3826 50.5152L18.8673 47.0304L22.3521 50.5152C23.4046 51.5677 25.1112 51.5678 26.1639 50.5152C27.2165 49.4626 27.2165 47.7561 26.1639 46.7035Z" fill="#253642"/>
<path d="M56.9609 40.5234H40.6094C39.1208 40.5234 37.9141 41.7302 37.9141 43.2188C37.9141 44.7073 39.1208 45.9141 40.6094 45.9141H56.9609C58.4495 45.9141 59.6562 44.7073 59.6562 43.2188C59.6562 41.7302 58.4495 40.5234 56.9609 40.5234Z" fill="#253642"/>
<path d="M56.9609 59.3906H40.6094C39.1208 59.3906 37.9141 60.5974 37.9141 62.0859C37.9141 63.5745 39.1208 64.7812 40.6094 64.7812H56.9609C58.4495 64.7812 59.6562 63.5745 59.6562 62.0859C59.6562 60.5974 58.4495 59.3906 56.9609 59.3906Z" fill="#253642"/>
<path d="M56.9609 78.2578H40.6094C39.1208 78.2578 37.9141 79.4646 37.9141 80.9531C37.9141 82.4417 39.1208 83.6484 40.6094 83.6484H56.9609C58.4495 83.6484 59.6562 82.4417 59.6562 80.9531C59.6562 79.4646 58.4495 78.2578 56.9609 78.2578Z" fill="#253642"/>
<defs>
<filter id="filter0_b_1_3810" x="-8" y="0" width="86" height="108" filterUnits="userSpaceOnUse" color-interpolation-filters="sRGB">
<feFlood flood-opacity="0" result="BackgroundImageFix"/>
<feGaussianBlur in="BackgroundImageFix" stdDeviation="6"/>
<feComposite in2="SourceAlpha" operator="in" result="effect1_backgroundBlur_1_3810"/>
<feBlend mode="normal" in="SourceGraphic" in2="effect1_backgroundBlur_1_3810" result="shape"/>
</filter>
<linearGradient id="paint0_linear_1_3810" x1="6.5" y1="22" x2="63" y2="96" gradientUnits="userSpaceOnUse">
<stop stop-color="white" stop-opacity="0.6"/>
<stop offset="1" stop-color="white" stop-opacity="0.1"/>
</linearGradient>
</defs>
</svg>
