<svg width="97" height="99" viewBox="0 0 97 99" fill="none" xmlns="http://www.w3.org/2000/svg">
<circle cx="72" cy="25" r="25" fill="#0052CC"/>
<g clip-path="url(#clip0_1_3841)">
<g filter="url(#filter0_b_1_3841)">
<path d="M23 35.5L34 26.5L47.5 23L58.5 26.5L66 32.5L71 51L61 75L62 91.5L45.5 97.5L30.5 89.5L21.5 49.5L23 35.5Z" fill="url(#paint0_linear_1_3841)" fill-opacity="0.2"/>
</g>
<g filter="url(#filter1_b_1_3841)">
<path d="M22.0408 52.0418L31.6241 74.0835C27.7897 77.9171 31.6241 80.7916 31.6241 83.6666C28.5566 85.2 30.346 89.4166 31.6241 91.3333C37.6939 91.3333 51.3668 91.1416 57.5002 90.375C63.6335 89.6083 62.6113 84.9444 61.3335 82.7083L62.2918 78.875L58.4585 76C62.9307 75.3611 64.2085 68.3333 70.9168 48.2085C69.9585 22.3335 44.0824 19.4585 31.6241 28.0835C21.6574 34.9835 21.0824 46.9307 22.0408 52.0418Z" fill="url(#paint1_linear_1_3841)"/>
<path d="M32.3311 74.7907L32.8127 74.3093L32.5412 73.6848L23.0036 51.7484C22.1107 46.7728 22.7564 35.4389 32.1933 28.9057C38.1522 24.7803 47.3992 23.3807 55.2502 26.1515C62.9666 28.8749 69.3914 35.647 69.9104 48.0655C68.6635 51.8095 67.6091 55.0842 66.689 57.9417C65.1459 62.7342 63.9806 66.3532 62.9189 69.0445C62.0686 71.1998 61.3243 72.6509 60.5687 73.5921C59.8432 74.4957 59.139 74.8926 58.3171 75.01L55.9271 75.3514L57.8585 76.8L61.1606 79.2766L60.3634 82.4658L60.2659 82.8556L60.4653 83.2044C61.0454 84.2197 61.493 85.6774 61.221 86.8704C61.0928 87.4327 60.8039 87.9503 60.2529 88.3783C59.6877 88.8173 58.7884 89.2061 57.3761 89.3827C51.4934 90.118 38.498 90.3215 32.1769 90.3328C31.6636 89.4623 31.1475 88.2975 30.9833 87.2073C30.8873 86.5698 30.9221 86.0258 31.085 85.5972C31.2376 85.1957 31.5241 84.8346 32.0712 84.5611L32.6241 84.2847V83.6666C32.6241 82.7407 32.3173 81.8684 32.0107 81.1175C31.9094 80.8693 31.8095 80.6367 31.7132 80.4126C31.4953 79.9053 31.2963 79.4418 31.1419 78.9403C30.9317 78.2573 30.8522 77.6305 30.985 76.9999C31.1166 76.3748 31.4789 75.6427 32.3311 74.7907Z" stroke="white" stroke-opacity="0.3" stroke-width="2" style="mix-blend-mode:overlay"/>
</g>
<path d="M68.5398 33.4947L68.3289 33.629L68.5398 33.4947C63.6093 25.7496 55.1832 21.125 46.002 21.125C36.8207 21.125 28.3947 25.7496 23.4644 33.4947C18.5339 41.2398 17.9106 50.8314 21.7967 59.1494L29.461 75.5553C28.4094 76.58 27.7545 78.0117 27.7545 79.5938C27.7545 80.9586 28.2423 82.2112 29.0516 83.1875C28.2425 84.1638 27.7545 85.4164 27.7545 86.7812C27.7545 89.8917 30.2847 92.4219 33.3951 92.4219H37.3667C38.2934 96.3318 41.8121 99.25 46.0022 99.25C50.1923 99.25 53.711 96.3318 54.6376 92.4219H58.6092C61.7197 92.4219 64.2498 89.8917 64.2498 86.7812C64.2498 85.4165 63.762 84.1638 62.9527 83.1875C63.7619 82.2112 64.2498 80.9586 64.2498 79.5938C64.2497 78.0117 63.5948 76.58 62.5431 75.5553L70.2074 59.1494C74.0936 50.8312 73.4701 41.2398 68.5398 33.4947ZM33.2308 73.9531L25.5057 57.4169C22.2146 50.3724 22.7425 42.2522 26.9177 35.6931C31.093 29.134 38.2267 25.2188 46.002 25.2188C53.7773 25.2188 60.911 29.134 65.0863 35.6931C69.2614 42.2522 69.7894 50.3724 66.4985 57.4167L58.7732 73.9531H52.3614V59.3594H54.627C58.1338 59.3594 60.9864 56.5069 60.9864 53C60.9864 49.4931 58.1338 46.6406 54.627 46.6406C51.1201 46.6406 48.2676 49.4931 48.2676 53V55.2656H43.7364V53C43.7364 49.4931 40.8838 46.6406 37.377 46.6406C33.8701 46.6406 31.0176 49.4931 31.0176 53C31.0176 56.5069 33.8701 59.3594 37.377 59.3594H39.6426V73.9531H33.2308ZM39.6426 55.2656H37.377C36.1279 55.2656 35.1114 54.2491 35.1114 53C35.1114 51.7509 36.1279 50.7344 37.377 50.7344C38.6261 50.7344 39.6426 51.7509 39.6426 53V55.2656ZM48.2676 59.3594V73.9531H43.7364V59.3594H48.2676ZM52.3614 55.2656V53C52.3614 51.7509 53.3779 50.7344 54.627 50.7344C55.8761 50.7344 56.8926 51.7509 56.8926 53C56.8926 54.2491 55.8761 55.2656 54.627 55.2656H52.3614ZM46.002 95.1562C44.0986 95.1562 42.4514 94.0374 41.6828 92.4219H50.3212C49.5526 94.0374 47.9054 95.1562 46.002 95.1562ZM58.609 88.3281H33.3949C32.5422 88.3281 31.8481 87.634 31.8481 86.7812C31.8481 85.9285 32.5422 85.2344 33.3949 85.2344H37.9161C39.0463 85.2344 39.9629 84.318 39.9629 83.1875C39.9629 82.057 39.0463 81.1406 37.9161 81.1406H33.3949C32.5422 81.1406 31.8481 80.4465 31.8481 79.5938C31.8481 78.741 32.5422 78.0469 33.3949 78.0469H58.609C59.4618 78.0469 60.1559 78.741 60.1559 79.5938C60.1559 80.4465 59.4618 81.1406 58.609 81.1406H54.0879C52.9576 81.1406 52.0411 82.057 52.0411 83.1875C52.0411 84.318 52.9576 85.2344 54.0879 85.2344H58.609C59.4618 85.2344 60.1559 85.9285 60.1559 86.7812C60.1559 87.634 59.4618 88.3281 58.609 88.3281Z" fill="#253642" stroke="#253642" stroke-width="0.5"/>
<path d="M46 18.0312C47.1303 18.0312 48.0469 17.1149 48.0469 15.9844V8.79688C48.0469 7.66637 47.1303 6.75 46 6.75C44.8697 6.75 43.9531 7.66637 43.9531 8.79688V15.9844C43.9531 17.1149 44.8697 18.0312 46 18.0312Z" fill="#253642" stroke="#253642" stroke-width="0.5"/>
<path d="M23.6939 24.3941L23.6938 24.394L18.6115 19.3118L18.6115 19.3117C17.812 18.5124 16.5164 18.5125 15.7167 19.3117L15.7167 19.3118C14.9173 20.1111 14.9174 21.4071 15.7166 22.2066L15.7167 22.2066L20.7991 27.2889C21.1988 27.6886 21.7231 27.8884 22.2465 27.8884C22.7699 27.8884 23.2941 27.6886 23.6938 27.2889C24.4932 26.4896 24.4931 25.1935 23.6939 24.3941Z" fill="#253642" stroke="#253642" stroke-width="0.5"/>
<path d="M12.4209 47.5615H5.2334C4.10311 47.5615 3.18652 48.4779 3.18652 49.6084C3.18652 50.7389 4.10311 51.6553 5.2334 51.6553H12.4209C13.5512 51.6553 14.4678 50.7389 14.4678 49.6084C14.4678 48.4779 13.5512 47.5615 12.4209 47.5615Z" fill="#253642" stroke="#253642" stroke-width="0.5"/>
<path d="M15.7503 79.8925L15.7504 79.8926C16.1501 80.2923 16.6743 80.4921 17.1977 80.4921C17.7211 80.4921 18.2454 80.2923 18.6451 79.8926L23.7273 74.8103C24.5267 74.011 24.5266 72.7149 23.7274 71.9154L23.7273 71.9154C22.9278 71.1159 21.6321 71.1159 20.8326 71.9154L21.0094 72.0922L20.8326 71.9154L15.7504 76.9977C14.951 77.797 14.9511 79.0931 15.7503 79.8925Z" fill="#253642" stroke="#253642" stroke-width="0.5"/>
<path d="M73.3874 19.3136L73.3873 19.3137L68.305 24.3962C68.305 24.3962 68.305 24.3962 68.305 24.3962C67.5057 25.1955 67.5058 26.4915 68.305 27.291L68.305 27.291C68.7047 27.6907 69.229 27.8906 69.7524 27.8906C70.2758 27.8906 70.8 27.6907 71.1997 27.291L76.282 22.2087C77.0813 21.4094 77.0813 20.1134 76.282 19.3139C75.4827 18.5144 74.187 18.5144 73.3874 19.3136Z" fill="#253642" stroke="#253642" stroke-width="0.5"/>
<path d="M86.7666 47.5615H79.5791C78.4488 47.5615 77.5322 48.4779 77.5322 49.6084C77.5322 50.7389 78.4488 51.6553 79.5791 51.6553H86.7666C87.8969 51.6553 88.8135 50.7389 88.8135 49.6084C88.8135 48.4779 87.8971 47.5615 86.7666 47.5615Z" fill="#253642" stroke="#253642" stroke-width="0.5"/>
<path d="M71.1701 71.9153L71.1701 71.9153C70.3706 71.116 69.075 71.116 68.2753 71.9152L68.2753 71.9153C67.4759 72.7146 67.476 74.0107 68.2752 74.8101L68.2753 74.8102L73.3575 79.8924C73.7572 80.2921 74.2815 80.492 74.8049 80.492C75.3283 80.492 75.8525 80.2921 76.2522 79.8924C77.0515 79.0931 77.0515 77.7971 76.2522 76.9976L76.2522 76.9976L71.1701 71.9153Z" fill="#253642" stroke="#253642" stroke-width="0.5"/>
<path d="M44.5528 81.7403C44.9339 81.3593 45.461 81.1406 46 81.1406C46.539 81.1406 47.0661 81.3593 47.447 81.7404C47.8282 82.1214 48.0469 82.6486 48.0469 83.1875C48.0469 83.7265 47.828 84.2536 47.447 84.6346L44.5528 81.7403ZM44.5528 81.7403C44.1718 82.1214 43.9531 82.6485 43.9531 83.1875M44.5528 81.7403L43.9531 83.1875M43.9531 83.1875C43.9531 83.7264 44.1716 84.2536 44.5529 84.6347M43.9531 83.1875L44.5529 84.6347M44.5529 84.6347C44.9341 85.0157 45.461 85.2344 46 85.2344M44.5529 84.6347L46 85.2344M46 85.2344C46.5389 85.2344 47.0661 85.0157 47.447 84.6347L46 85.2344Z" fill="#253642" stroke="#253642" stroke-width="0.5"/>
</g>
<defs>
<filter id="filter0_b_1_3841" x="9.5" y="11" width="73.5" height="98.5" filterUnits="userSpaceOnUse" color-interpolation-filters="sRGB">
<feFlood flood-opacity="0" result="BackgroundImageFix"/>
<feGaussianBlur in="BackgroundImageFix" stdDeviation="6"/>
<feComposite in2="SourceAlpha" operator="in" result="effect1_backgroundBlur_1_3841"/>
<feBlend mode="normal" in="SourceGraphic" in2="effect1_backgroundBlur_1_3841" result="shape"/>
</filter>
<filter id="filter1_b_1_3841" x="9.7124" y="11.7128" width="73.2046" height="91.6205" filterUnits="userSpaceOnUse" color-interpolation-filters="sRGB">
<feFlood flood-opacity="0" result="BackgroundImageFix"/>
<feGaussianBlur in="BackgroundImageFix" stdDeviation="6"/>
<feComposite in2="SourceAlpha" operator="in" result="effect1_backgroundBlur_1_3841"/>
<feBlend mode="normal" in="SourceGraphic" in2="effect1_backgroundBlur_1_3841" result="shape"/>
</filter>
<linearGradient id="paint0_linear_1_3841" x1="6.46774" y1="17.9524" x2="63.1947" y2="112.048" gradientUnits="userSpaceOnUse">
<stop stop-color="white" stop-opacity="0.6"/>
<stop offset="1" stop-color="white" stop-opacity="0.1"/>
</linearGradient>
<linearGradient id="paint1_linear_1_3841" x1="25.4438" y1="23.7128" x2="75.2246" y2="33.5872" gradientUnits="userSpaceOnUse">
<stop stop-color="white" stop-opacity="0.6"/>
<stop offset="1" stop-color="white" stop-opacity="0.1"/>
</linearGradient>
<clipPath id="clip0_1_3841">
<rect width="92" height="92" fill="white" transform="translate(0 7)"/>
</clipPath>
</defs>
</svg>
